<svg width="1728" height="972" fill="none" xmlns="http://www.w3.org/2000/svg" preserveAspectRatio="none"><g clip-path="url(#clip0_233_956)"><path fill="#E5FFF2" d="M0 0h1728v972H0z"/><path fill="#5990BD" d="M0 0h1728v1024H0z"/><path d="M1935 354c12 606-541.11 738-973 738-431.887 0-782-350.113-782-782s350.113-782 782-782c431.89 0 973 394.113 973 826z" fill="#83C9A5"/><mask id="a" style="mask-type:alpha" maskUnits="userSpaceOnUse" x="180" y="-472" width="1815" height="1564"><path d="M1995 400c0 431.887-601.11 692-1033 692-431.887 0-782-350.113-782-782s350.113-782 782-782c431.89 0 1033 440.113 1033 872z" fill="#7A4C40"/></mask><g mask="url(#a)"><circle cx="-327.667" cy="303.091" r="585.102" fill="#F07C57"/></g></g><defs><clipPath id="clip0_233_956"><path fill="#fff" d="M0 0h1728v972H0z"/></clipPath></defs></svg>